<?xml version="1.0" encoding="UTF-8" standalone="no"?>
<!DOCTYPE svg PUBLIC "-//W3C//DTD SVG 1.1//EN" "http://www.w3.org/Graphics/SVG/1.1/DTD/svg11.dtd">
<svg data-trigger="accent" width="100%" height="100%" viewBox="0 0 352 260" version="1.1" xmlns="http://www.w3.org/2000/svg" xmlns:xlink="http://www.w3.org/1999/xlink" xml:space="preserve" xmlns:serif="http://www.serif.com/" style="fill-rule:evenodd;clip-rule:evenodd;stroke-linejoin:round;stroke-miterlimit:2;fill:var(--color-accent)">
    <path d="M57.036,117.977c-0.975,0.172 -1.975,-0 -2.997,-0l-17.134,-0c-5.127,-0 -10.084,-1.575 -13.973,-4.915c-0.549,-0.479 -1.133,-0.943 -1.748,-1.403l-9.629,-7.704c-7.703,-6.259 -11.555,-9.629 -11.555,-16.37c-0,-6.876 3.453,-12.675 10.359,-13.743c0.963,-0.128 1.945,0 2.943,0l40.327,0c1.111,-0.172 2.249,0 3.407,0l164.462,0c14.764,0 28.924,5.866 39.364,16.306c9.672,9.672 15.418,22.537 16.21,36.118c0.063,1.078 0.095,2.16 0.095,3.246l-0.095,-0l0,0.004l0.095,0c-0,1.086 -0.032,2.168 -0.095,3.246c-0.792,13.581 -6.538,26.446 -16.21,36.118c-10.44,10.44 -24.6,16.305 -39.364,16.305l-46.934,0c-25.19,0 -45.611,20.421 -45.611,45.611l0,6.165c0,12.179 -9.888,22.067 -22.067,22.067c-12.179,-0 -22.067,-9.888 -22.067,-22.067l-0,-6.165c-0,-49.565 40.18,-89.745 89.745,-89.745l46.934,-0c3.059,-0 5.993,-1.215 8.156,-3.378c2.153,-2.154 3.366,-4.445 3.378,-8.161c0,-3.059 -1.215,-5.993 -3.378,-8.157c-2.163,-2.163 -5.097,-3.378 -8.156,-3.378l-164.462,-0Zm164.462,-73.843l-96.41,0c-5.126,0 -10.083,-1.836 -13.972,-5.176c-0.549,-0.479 -1.133,-0.943 -1.748,-1.404l-9.629,-7.703c-7.704,-6.259 -11.555,-9.629 -11.555,-16.37c-0,-6.877 3.453,-12.219 10.358,-13.286c0.963,-0.129 1.946,-0.195 2.944,-0.195l120.012,0c34.348,-0 67.29,13.645 91.578,37.933c24.288,24.288 37.933,57.23 37.933,91.579l0,0.004c0,34.349 -13.645,67.291 -37.933,91.579c-24.288,24.288 -57.23,37.933 -91.578,37.933l-40.77,-0c-12.179,-0 -22.067,-9.888 -22.067,-22.067c0,-12.18 9.888,-22.068 22.067,-22.068l40.77,0c22.643,0 44.359,-8.995 60.37,-25.006c16.012,-16.011 25.007,-37.727 25.007,-60.371l-0,-0.004c-0,-22.644 -8.995,-44.36 -25.007,-60.371c-16.011,-16.011 -37.727,-25.007 -60.37,-25.007Z"/>
</svg>
