<?xml version="1.0" encoding="UTF-8" standalone="no"?>
<!DOCTYPE svg PUBLIC "-//W3C//DTD SVG 1.1//EN" "http://www.w3.org/Graphics/SVG/1.1/DTD/svg11.dtd">
<svg data-trigger="accent" width="100%" height="100%" viewBox="0 0 2263 735" version="1.1" xmlns="http://www.w3.org/2000/svg" xmlns:xlink="http://www.w3.org/1999/xlink" xml:space="preserve" xmlns:serif="http://www.serif.com/" style="fill-rule:evenodd;clip-rule:evenodd;stroke-linejoin:round;stroke-miterlimit:2;">
    <g style="fill:var(--color-foreground)">
        <path d="M824.904,486.543l90.176,-0c76.023,-0 114.529,-38.506 114.529,-93.796c-0,-60.555 -40.809,-83.264 -102.023,-83.264l-102.682,0c-5.923,0 -8.885,3.95 -8.885,9.215c-0,4.608 2.632,6.912 7.898,11.19l6.582,5.266c5.266,3.949 7.241,8.227 7.241,20.404l-0,84.91c-0,12.177 -1.975,16.455 -7.241,20.734l-6.582,5.265c-5.266,3.95 -7.898,6.253 -7.898,11.19c-0,4.937 2.962,8.886 8.885,8.886Zm73.391,-46.733l0,-83.594c0,-9.544 2.962,-15.468 14.152,-15.468l5.595,0c26.986,0 46.733,20.076 46.733,61.873c-0,32.252 -15.468,52.657 -45.417,52.657l-6.911,-0c-10.532,-0 -14.152,-5.924 -14.152,-15.468Z" style="fill-rule:nonzero;"/>
        <path d="M1100.19,492.028c55.536,-0 94.275,-37.367 94.275,-91.19c0,-55.537 -38.739,-93.933 -94.275,-93.933c-55.537,0 -94.276,37.368 -94.276,93.933c0,53.823 38.396,91.19 94.276,91.19Zm-32.568,-119.987c-0,-18.512 6.513,-34.625 22.626,-34.625c24.683,0 41.481,44.567 41.481,86.048c0,19.541 -5.485,37.024 -22.626,37.024c-24.34,0 -41.481,-42.166 -41.481,-88.447Z" style="fill-rule:nonzero;"/>
        <path d="M1247.94,488.257c25.026,-0 32.568,-6.171 37.71,-24.34l19.884,-70.621l20.226,70.621c4.799,18.169 13.37,24.34 38.739,24.34c24.683,-0 31.882,-6.514 37.71,-24.34l34.967,-107.988c3.086,-9.599 5.485,-13.37 10.285,-17.484l3.428,-3.771c3.085,-3.429 5.142,-7.2 5.142,-12.342c0,-4.799 -3.771,-10.284 -13.37,-10.284l-46.623,-0c-8.228,-0 -10.627,5.828 -10.627,10.97c-0,5.142 2.399,8.913 7.199,13.713l3.771,2.742c6.171,5.828 7.542,10.285 4.456,20.227l-20.226,68.563l-26.397,-98.389c-2.743,-10.97 -11.656,-16.112 -31.539,-16.112c-21.255,-0 -28.797,5.142 -31.54,16.112l-27.425,98.389l-19.541,-68.563c-3.086,-10.285 -1.029,-15.085 4.799,-20.227l3.429,-2.742c4.799,-4.457 7.199,-8.914 7.199,-15.084c-0,-4.457 -2.057,-9.599 -10.628,-9.599l-79.191,-0c-9.256,-0 -12.684,5.828 -12.684,11.313c-0,5.142 1.371,7.884 6.513,13.37l2.057,1.714c4.8,4.456 7.199,7.542 10.285,17.484l34.967,107.988c5.828,18.169 13.37,24.34 37.025,24.34Z" style="fill-rule:nonzero;"/>
        <path d="M1653.84,556.478c37.71,-0 61.022,-15.427 61.022,-34.625c0,-12.341 -7.542,-20.912 -18.512,-20.912c-19.541,0 -31.539,27.426 -49.023,27.426c-16.113,-0 -23.312,-14.399 -23.312,-42.51l0,-116.901c0,-46.281 -20.569,-62.394 -50.394,-62.394c-25.369,0 -45.938,11.999 -59.651,31.197l-0,-19.198c-0,-7.885 -4.114,-10.627 -11.656,-8.913l-53.48,11.313c-9.942,2.057 -11.998,8.228 -11.998,13.027c-0,5.142 2.056,7.885 8.227,13.37l3.086,1.371c5.827,4.8 8.913,7.885 8.913,17.827l-0,76.449c-0,9.599 -2.057,13.027 -7.199,17.141l-2.743,1.371c-7.542,6.856 -9.599,9.599 -9.599,14.741c0,4.8 3.428,10.285 12.684,10.285l71.307,-0c10.285,-0 14.056,-5.828 14.056,-12.342c-0,-4.799 -1.029,-7.542 -5.486,-12.341l-2.742,-1.714c-4.457,-4.457 -7.199,-7.2 -7.199,-17.141l-0,-63.422c-0,-18.855 13.712,-29.482 25.368,-29.482c10.971,-0 15.427,7.884 15.427,23.997l0,76.449c0,77.134 43.881,105.931 92.904,105.931Z" style="fill-rule:nonzero;"/>
        <path d="M1631.9,486.543l76.449,-0c9.599,-0 13.027,-5.485 13.027,-10.285c-0,-5.142 -2.4,-7.885 -7.885,-12.684l-4.8,-3.428c-4.799,-4.114 -6.856,-6.857 -6.856,-17.141l0,-217.691c0,-9.942 -4.457,-13.37 -14.056,-10.627l-57.593,16.112c-8.914,2.4 -11.656,7.2 -11.656,12.685c-0,5.142 2.057,7.542 7.542,12.684l3.771,2.4c5.828,4.456 8.913,8.913 8.913,21.94l0,162.497c0,10.284 -2.399,13.027 -7.199,17.141l-4.799,3.428c-5.143,4.799 -7.542,7.542 -7.542,12.684c-0,4.8 3.085,10.285 12.684,10.285Z" style="fill-rule:nonzero;"/>
        <path d="M1792.34,492.028c55.537,-0 94.276,-37.367 94.276,-91.19c-0,-55.537 -38.739,-93.933 -94.276,-93.933c-55.536,0 -94.275,37.368 -94.275,93.933c0,53.823 38.396,91.19 94.275,91.19Zm-32.567,-119.987c-0,-18.512 6.513,-34.625 22.626,-34.625c24.683,0 41.481,44.567 41.481,86.048c-0,19.541 -5.485,37.024 -22.626,37.024c-24.34,0 -41.481,-42.166 -41.481,-88.447Z" style="fill-rule:nonzero;"/>
        <path d="M2002.49,486.543l41.824,-0c9.256,-0 12.684,-5.485 12.684,-10.285c0,-5.485 -2.4,-8.227 -9.256,-14.741l-2.742,-1.371c-5.143,-4.457 -7.543,-7.542 -7.543,-17.141l0,-63.765c0,-53.48 -24.683,-72.678 -70.963,-72.335c-35.311,0 -87.762,15.77 -87.762,47.995c0,13.37 8.228,23.997 24.683,23.655c13.37,-0.343 21.598,-5.486 31.197,-20.912c8.227,-13.713 16.112,-20.57 25.711,-20.57c8.228,0 14.056,4.457 14.056,21.598l-0,19.884c-64.45,7.884 -98.732,27.082 -98.732,67.192c-0,29.483 18.855,46.624 49.366,46.281c27.082,-0.343 45.595,-13.37 56.222,-30.511l0,1.371c0,17.484 5.828,23.655 21.255,23.655Zm-70.278,-51.766c-0,-14.741 14.055,-26.397 42.167,-31.539l-0,10.284c-0,24.683 -10.971,37.71 -25.712,37.71c-11.313,0 -16.455,-6.513 -16.455,-16.455Z" style="fill-rule:nonzero;"/>
        <path d="M2110.82,492.028c27.425,-0 46.623,-14.056 56.908,-32.568l-0,12.342c-0,8.57 3.771,14.741 11.656,14.741l45.252,-0c9.256,-0 12.684,-5.143 12.684,-10.97c0,-5.828 -2.742,-8.571 -8.227,-13.028l-4.8,-3.085c-5.142,-3.771 -7.542,-7.885 -7.542,-16.798l0,-217.691c0,-9.599 -4.457,-13.027 -14.398,-10.284l-57.937,16.112c-8.227,2.057 -11.656,6.514 -11.656,12.685c0,5.142 2.057,7.542 7.542,12.684l4.457,2.743c5.485,4.456 8.228,8.57 8.228,21.597l-0,39.767c-10.971,-8.227 -25.712,-13.37 -41.824,-13.37c-43.538,0 -77.478,33.254 -77.478,96.333c0,57.25 33.94,88.79 77.135,88.79Zm-14.399,-105.931c0,-29.826 9.942,-47.995 26.74,-47.995c16.113,-0 29.826,15.427 29.826,54.165l-0,27.083c-0,20.569 -6.857,38.739 -23.655,38.739c-22.626,-0 -32.911,-33.939 -32.911,-71.992Z" style="fill-rule:nonzero;"/>
    </g>
    <g transform="matrix(0.416938,0,0,0.416938,367.774,429.362)" style="fill:var(--color-foreground)">
        <g transform="matrix(314.067,0,0,314.067,493.713,0)">
            <path d="M0.187,-0l0.201,-0c0.014,-0 0.022,-0.009 0.022,-0.018c0,-0.008 -0.005,-0.017 -0.02,-0.024l-0.016,-0.009c-0.029,-0.014 -0.038,-0.022 -0.038,-0.055l0,-0.366l0.068,-0c0.049,-0 0.068,0.012 0.083,0.051l0.017,0.043c0.007,0.016 0.014,0.022 0.027,0.022c0.013,0 0.022,-0.008 0.022,-0.026l0,-0.117c0,-0.027 -0.011,-0.034 -0.04,-0.034l-0.452,0c-0.028,0 -0.04,0.007 -0.04,0.034l0,0.117c0,0.019 0.01,0.026 0.023,0.026c0.013,0 0.02,-0.007 0.027,-0.022l0.016,-0.043c0.016,-0.038 0.033,-0.051 0.083,-0.051l0.068,-0l0,0.366c0,0.032 -0.008,0.041 -0.037,0.055l-0.017,0.009c-0.015,0.008 -0.019,0.016 -0.019,0.024c0,0.01 0.007,0.018 0.022,0.018Z" style="fill-rule:nonzero;"/>
        </g>
        <g transform="matrix(314.067,0,0,314.067,649.176,0)">
            <path d="M0.434,-0l0.188,-0c0.014,-0 0.022,-0.009 0.022,-0.018c0,-0.009 -0.006,-0.016 -0.02,-0.024l-0.016,-0.01c-0.022,-0.013 -0.033,-0.018 -0.033,-0.05l0,-0.329c0,-0.031 0.01,-0.037 0.033,-0.05l0.016,-0.01c0.013,-0.008 0.02,-0.016 0.02,-0.025c0,-0.009 -0.008,-0.017 -0.022,-0.017l-0.188,0c-0.014,0 -0.022,0.008 -0.022,0.018c0,0.011 0.008,0.019 0.02,0.027l0.013,0.007c0.022,0.012 0.032,0.019 0.032,0.05l0,0.126l-0.266,0l0,-0.126c0,-0.031 0.01,-0.038 0.032,-0.05l0.013,-0.007c0.014,-0.009 0.02,-0.017 0.02,-0.027c0,-0.01 -0.008,-0.018 -0.022,-0.018l-0.187,0c-0.014,0 -0.021,0.008 -0.021,0.017c0,0.011 0.007,0.018 0.018,0.025l0.017,0.01c0.023,0.012 0.032,0.019 0.032,0.05l0,0.329c0,0.032 -0.01,0.038 -0.032,0.05l-0.017,0.01c-0.013,0.007 -0.018,0.015 -0.018,0.024c0,0.009 0.007,0.018 0.021,0.018l0.187,-0c0.014,-0 0.022,-0.008 0.022,-0.019c0,-0.009 -0.006,-0.018 -0.02,-0.026l-0.013,-0.007c-0.023,-0.013 -0.032,-0.02 -0.032,-0.05l0,-0.14l0.266,0l0,0.14c0,0.03 -0.01,0.037 -0.032,0.05l-0.013,0.007c-0.013,0.008 -0.02,0.017 -0.02,0.026c0,0.011 0.008,0.019 0.022,0.019Z" style="fill-rule:nonzero;"/>
        </g>
        <g transform="matrix(323.489,0,0,323.489,824.739,0)">
            <path d="M0.287,0.016c0.086,0 0.171,-0.039 0.201,-0.098c0.007,-0.014 0.01,-0.031 -0.001,-0.039c-0.011,-0.007 -0.023,-0.004 -0.037,0.007c-0.036,0.031 -0.077,0.048 -0.134,0.048c-0.084,-0 -0.145,-0.043 -0.169,-0.126l0.281,-0.086c0.045,-0.014 0.063,-0.048 0.049,-0.098c-0.029,-0.098 -0.1,-0.142 -0.197,-0.142c-0.137,0 -0.241,0.117 -0.241,0.276c-0,0.15 0.093,0.258 0.248,0.258Zm-0.152,-0.298c-0,-0.115 0.06,-0.174 0.129,-0.174c0.066,-0 0.104,0.054 0.104,0.096c0,0.027 -0.018,0.043 -0.056,0.057l-0.175,0.065c-0.001,-0.014 -0.002,-0.029 -0.002,-0.044Z" style="fill-rule:nonzero;"/>
        </g>
    </g>
    <path d="M72.176,377.986c-1.234,0.218 -2.499,0 -3.793,0l-21.682,0c-6.488,0 -12.76,-1.992 -17.682,-6.219c-0.695,-0.606 -1.434,-1.193 -2.211,-1.776l-12.186,-9.748c-9.748,-7.921 -14.622,-12.186 -14.622,-20.715c0,-8.702 4.369,-16.04 13.108,-17.391c1.219,-0.163 2.462,-0 3.725,-0l51.032,-0c1.405,-0.218 2.845,-0 4.311,-0l208.116,-0c18.684,-0 36.602,7.422 49.813,20.633c12.24,12.24 19.51,28.52 20.514,45.705c0.079,1.364 0.119,2.734 0.119,4.108l-0.119,-0l-0,0.006l0.119,-0c0,1.373 -0.04,2.743 -0.119,4.107c-1.004,17.186 -8.274,33.466 -20.514,45.706c-13.211,13.211 -31.129,20.633 -49.813,20.633l-59.392,-0c-31.876,-0 -57.717,25.84 -57.717,57.717l-0,7.801c-0,15.412 -12.513,27.925 -27.925,27.925c-15.412,-0 -27.925,-12.513 -27.925,-27.925l0,-7.801c0,-62.721 50.846,-113.567 113.567,-113.567l59.392,0c3.871,0 7.584,-1.538 10.321,-4.275c2.726,-2.725 4.26,-5.625 4.276,-10.327c-0,-3.871 -1.538,-7.584 -4.276,-10.321c-2.737,-2.738 -6.45,-4.276 -10.321,-4.276l-208.116,0Zm208.116,-93.443l-122,0c-6.487,-0 -12.76,-2.324 -17.682,-6.55c-0.694,-0.606 -1.433,-1.194 -2.211,-1.777l-12.185,-9.748c-9.749,-7.921 -14.623,-12.185 -14.623,-20.715c0,-8.702 4.37,-15.462 13.109,-16.813c1.218,-0.163 2.461,-0.247 3.724,-0.247l151.868,0c43.466,0 85.152,17.267 115.887,48.003c30.736,30.735 48.003,72.421 48.003,115.887l-0,0.006c-0,43.466 -17.267,85.152 -48.003,115.887c-30.735,30.735 -72.421,48.002 -115.887,48.002l-51.591,-0c-15.412,-0 -27.925,-12.513 -27.925,-27.925c0,-15.412 12.513,-27.925 27.925,-27.925l51.591,0c28.654,0 56.134,-11.382 76.396,-31.644c20.261,-20.261 31.644,-47.741 31.644,-76.395l0,-0.006c0,-28.654 -11.383,-56.134 -31.644,-76.396c-20.262,-20.261 -47.742,-31.644 -76.396,-31.644Z" style="fill:var(--color-accent)"/>
</svg>
